<?xml version="1.0" standalone="no"?>
<!DOCTYPE svg PUBLIC "-//W3C//DTD SVG 20010904//EN"
 "http://www.w3.org/TR/2001/REC-SVG-20010904/DTD/svg10.dtd">
<svg version="1.0" xmlns="http://www.w3.org/2000/svg"
 width="300.000000pt" height="300.000000pt" viewBox="0 0 300.000000 300.000000"
 preserveAspectRatio="xMidYMid meet">
<metadata>
Created by potrace 1.11, written by Peter Selinger 2001-2013
</metadata>
<g transform="translate(0.000000,300.000000) scale(0.100000,-0.100000)"
fill="#000000" stroke="none">
<path d="M980 2722 c-20 -20 -63 -57 -95 -82 -49 -37 -61 -51 -63 -79 -4 -39
16 -64 101 -123 31 -23 57 -48 57 -57 0 -18 -61 -80 -123 -126 -40 -30 -48
-67 -15 -73 20 -4 120 70 166 123 63 71 53 105 -52 187 -39 29 -70 57 -70 63
-1 5 34 35 76 67 80 60 102 95 78 123 -17 21 -20 20 -60 -23z"/>
<path d="M1456 2744 c-9 -8 -16 -19 -16 -23 0 -4 -31 -29 -70 -56 -38 -28 -77
-64 -86 -81 -15 -27 -15 -33 -2 -58 8 -16 46 -51 83 -80 38 -28 70 -57 73 -64
4 -13 -37 -56 -124 -129 -46 -39 -48 -42 -32 -59 14 -14 22 -15 40 -7 45 22
156 123 172 158 24 49 8 77 -79 142 -39 29 -71 59 -73 66 -1 8 23 32 55 54 91
64 119 101 101 136 -11 21 -22 22 -42 1z"/>
<path d="M1885 2736 c-9 -14 -50 -50 -91 -80 -114 -86 -112 -120 10 -210 42
-31 76 -60 76 -64 0 -10 -85 -92 -132 -127 -39 -28 -49 -61 -22 -72 24 -9 62
16 141 92 57 54 73 76 73 98 0 43 -13 60 -90 117 -38 28 -70 58 -70 65 0 7 29
34 65 59 35 26 71 56 80 68 20 29 19 64 -1 72 -22 8 -22 9 -39 -18z"/>
<path d="M365 2083 c6 -26 443 -1708 466 -1795 l10 -38 483 0 483 0 32 128
c18 70 43 141 54 157 12 17 197 241 411 500 214 259 400 485 413 504 30 44 29
72 -3 110 l-26 31 -247 0 c-136 0 -250 3 -253 6 -3 3 18 98 48 212 30 114 54
208 54 210 0 1 -435 2 -966 2 l-966 0 7 -27z m2038 -641 c-26 -32 -129 -155
-227 -275 -99 -119 -181 -215 -183 -214 -1 2 29 123 67 270 39 146 70 268 70
271 0 4 72 6 161 6 l161 0 -49 -58z"/>
</g>
</svg>
